<?xml version="1.0" encoding="UTF-8" standalone="no"?>
<!-- Created with Inkscape (http://www.inkscape.org/) -->

<svg
   xmlns:dc="http://purl.org/dc/elements/1.1/"
   xmlns:cc="http://creativecommons.org/ns#"
   xmlns:rdf="http://www.w3.org/1999/02/22-rdf-syntax-ns#"
   xmlns:svg="http://www.w3.org/2000/svg"
   xmlns="http://www.w3.org/2000/svg"
   xmlns:sodipodi="http://sodipodi.sourceforge.net/DTD/sodipodi-0.dtd"
   xmlns:inkscape="http://www.inkscape.org/namespaces/inkscape"
   id="svg8"
   version="1.1"
   viewBox="0 0 270.93333 270.93334"
   height="1024"
   width="1024"
   inkscape:version="0.92.2 5c3e80d, 2017-08-06"
   sodipodi:docname="griffonnage-logo.svg"
   inkscape:export-filename="/Users/romain/Desktop/griffonnage-logo.png"
   inkscape:export-xdpi="96"
   inkscape:export-ydpi="96">
  <sodipodi:namedview
     inkscape:window-maximized="1"
     inkscape:window-y="1"
     inkscape:window-x="0"
     inkscape:window-height="855"
     inkscape:window-width="1440"
     showgrid="false"
     inkscape:current-layer="layer1"
     inkscape:document-units="mm"
     inkscape:cy="498.29722"
     inkscape:cx="184.34389"
     inkscape:zoom="0.25"
     inkscape:pageshadow="2"
     inkscape:pageopacity="1"
     borderopacity="1.0"
     bordercolor="#666666"
     pagecolor="#ffffff"
     id="base"
     inkscape:pagecheckerboard="true"
     units="px" />
  <defs
     id="defs2">
    <inkscape:path-effect
       spray_tool_friendly="false"
       fixed_displacement="false"
       shift_nodes="true"
       handles="along"
       global_randomize="1;1"
       displace_y="10;1"
       displace_x="10;1"
       segments="2"
       max_segment_size="10"
       method="segments"
       is_visible="true"
       id="path-effect4559"
       effect="roughen" />
    <inkscape:path-effect
       simplify_just_coalesce="false"
       simplify_individual_paths="false"
       helper_size="5"
       smooth_angles="0"
       threshold="0.002"
       steps="1"
       is_visible="true"
       id="path-effect4557"
       effect="simplify" />
    <inkscape:path-effect
       tgtlength_rdm="0.3;1"
       tgtlength="100"
       tgtscale="10"
       tgt_places_rdmness="1;1"
       nbtangents="5"
       tremble_frequency="1"
       tremble_size="5;1"
       parallel_offset="5;1"
       ends_tolerance="0.1;1"
       strokeoverlap_rdm="0.3;1"
       strokeoverlap="0.3"
       strokelength_rdm="0.3;1"
       strokelength="100"
       nbiter_approxstrokes="5"
       is_visible="true"
       id="path-effect4544"
       effect="sketch" />
    <inkscape:path-effect
       miter_limit="100"
       jointype="extrapolated"
       smoothing="0.5"
       end_offset="0.2"
       attach_start="0.2"
       stroke_width="1"
       is_visible="true"
       id="path-effect4542"
       effect="taper_stroke" />
    <inkscape:path-effect
       simplify_just_coalesce="false"
       simplify_individual_paths="false"
       helper_size="5"
       smooth_angles="0"
       threshold="0.0022"
       steps="14"
       is_visible="true"
       id="path-effect4540"
       effect="simplify" />
    <inkscape:path-effect
       border_marks="both"
       mark_dir="left"
       offset="0"
       shift="0"
       major_mark_steps="5"
       minor_mark_length="7"
       mark_length="14"
       mark_distance="20"
       unit="px"
       is_visible="true"
       id="path-effect4536"
       effect="ruler" />
    <inkscape:path-effect
       spray_tool_friendly="true"
       fixed_displacement="false"
       shift_nodes="true"
       handles="along"
       global_randomize="1;1"
       displace_y="10;1"
       displace_x="10;1"
       segments="5"
       max_segment_size="10"
       method="segments"
       is_visible="true"
       id="path-effect4534"
       effect="roughen" />
    <inkscape:path-effect
       back_thickness="0.25"
       front_thickness="1"
       stroke_width_bottom="1"
       stroke_width_top="1"
       fat_output="true"
       bottom_smth_variation="0;1"
       top_smth_variation="0;1"
       scale_tb="1"
       scale_tf="1"
       scale_bb="1"
       scale_bf="1"
       top_tgt_variation="0;1"
       bottom_tgt_variation="0;1"
       top_edge_variation="13.909524;1"
       bottom_edge_variation="13.909524;1"
       bender="84.666662,140.51786 , 5,0"
       do_bend="true"
       growth="0"
       dist_rdm="75;1"
       direction="84.666662,135.51786 , 9.4494043,0"
       is_visible="true"
       id="path-effect4532"
       effect="rough_hatches" />
    <inkscape:path-effect
       vertical="false"
       scale_y_rel="false"
       prop_scale="1"
       bendpath="M 65.767853,140.51786 H 103.56547"
       is_visible="true"
       id="path-effect4530"
       effect="bend_path" />
    <inkscape:path-effect
       tgtlength_rdm="1;1363660093"
       tgtlength="100"
       tgtscale="10.1"
       tgt_places_rdmness="1;1"
       nbtangents="5"
       tremble_frequency="1"
       tremble_size="5;1"
       parallel_offset="5;1"
       ends_tolerance="0.1;1"
       strokeoverlap_rdm="0.3;1"
       strokeoverlap="0.3"
       strokelength_rdm="0.3;2147483646"
       strokelength="100"
       nbiter_approxstrokes="10"
       is_visible="true"
       id="path-effect4528"
       effect="sketch" />
  </defs>
  <metadata
     id="metadata5">
    <rdf:RDF>
      <cc:Work
         rdf:about="">
        <dc:format>image/svg+xml</dc:format>
        <dc:type
           rdf:resource="http://purl.org/dc/dcmitype/StillImage" />
        <dc:title />
      </cc:Work>
    </rdf:RDF>
  </metadata>
  <g
     id="layer1"
     inkscape:groupmode="layer"
     inkscape:label="Layer 1"
     transform="translate(0,-26.06665)">
    <g
       id="g7757"
       transform="matrix(1.2980658,0,0,1.2980658,0.54589102,-46.358221)"
       style="display:inline">
      <g
         style="display:inline"
         id="g5380"
         transform="matrix(0.26458333,0,0,0.26458333,6.163612,62.392921)">
        <g
           id="g5324">
          <path
             id="path5322"
             d="m 676.24885,122.10221 c 0.16809,-1.36078 -0.32651,-2.92765 -1.57473,-4.91871 -0.79627,-0.79067 -3.47055,-1.02036 -3.59577,-4.69725 -2.60913,-2.35735 -6.01031,-4.71558 -7.57014,-7.51382 -3.32654,0.55643 -4.54692,0.5263 -6.62682,-0.47456 -12.31207,-1.36912 -21.98138,-4.734408 -31.92791,-5.6389 -9.59286,-3.293831 -24.46141,-4.8461 -35.46695,-8.352855 C 579.76409,87.81563 570.18617,85.993114 557.693,82.867874 548.38154,79.02963 533.59547,73.221492 521.39046,70.337782 509.53375,67.938964 501.8321,64.914433 490.78898,59.346102 480.12435,55.445872 468.55874,49.099703 455.57307,42.412699 442.3154,35.960289 427.94253,27.374308 415.81733,22.304394 403.88702,17.621055 392.28814,8.7695221 379.17912,3.1062753 c -0.33992,-0.8900775 -3.57918,1.4110098 -6.98073,-0.4439067 -1.98607,0.8159573 0.21588,0.094564 -3.26255,-1.5944757 -1.30646,-1.38417522 -4.57895,-0.056305 -6.87928,0.2074088 0.15465,1.1112356 -4.31325,-0.71100422 -4.36635,-0.1986297 -13.84965,6.9876535 -23.72771,16.516624 -36.89425,21.968962 -14.30314,4.545068 -25.9731,11.365892 -38.62773,18.653033 -12.85712,6.44566 -22.70551,8.235636 -33.04872,14.678086 -10.0368,5.962266 -22.42942,7.679185 -33.9805,12.95891 -11.11122,3.27045 -22.19007,12.308213 -34.87189,14.489071 -12.86941,3.484391 -20.73349,3.496654 -32.88099,7.627471 -12.30133,0.973521 -20.75964,3.97172 -31.74085,5.408281 -11.34925,3.113864 -26.729752,6.755464 -36.280366,7.107884 -1.536331,-0.21982 -2.432439,2.93509 -4.240789,2.39342 -1.135334,0.41393 -1.473024,4.20145 -4.934842,4.74341 -0.592339,3.34215 -3.887338,4.61508 -5.433495,5.14011 0.643628,2.34284 -1.558566,7.45722 -1.379719,8.60689 -1.531155,46.34538 0.01105,89.53418 5.401924,130.21754 4.370196,42.96365 8.157448,82.96059 19.669649,122.61361 10.082497,37.10928 26.073798,74.50346 40.010268,107.86791 14.93839,32.7802 34.14743,66.50574 56.50829,94.85403 9.80626,18.00458 21.74788,29.72157 35.91451,45.4527 13.7206,15.3205 28.70078,26.88071 43.34916,38.73638 15.63024,13.26029 24.90669,23.27858 42.5258,36.30882 14.61711,11.85632 32.54212,26.83573 51.00346,34.91269 3.021,0.25818 2.17714,1.99206 4.60721,0.97128 0.99149,2.12644 6.79389,-0.51076 8.09225,0.8061 2.79586,-1.95466 4.04882,2.13606 4.81106,0.58883 -0.03,0.35882 3.38931,-1.80235 5.7575,-2.69097 19.25873,-11.86525 30.61867,-21.07574 47.80845,-34.29584 17.78009,-13.10331 33.21871,-22.46598 47.82886,-33.94572 14.36406,-13.33349 29.96068,-29.64523 41.2588,-42.70447 11.16706,-15.49822 24.79027,-28.63572 36.3295,-44.32366 22.86219,-30.37486 38.7009,-65.51963 54.50227,-97.83419 17.46316,-35.68109 27.1247,-68.93449 37.42928,-107.27311 10.51919,-37.51185 16.80446,-79.0138 21.68215,-120.05981 6.16828,-40.83189 7.02049,-87.14768 5.44261,-132.11377 0.22899,-1.77792 -0.57016,1.78151 0.18589,-0.0632 M 519.78133,556.67931 c -11.21711,12.73798 -19.89551,29.18063 -31.37703,40.54716 -13.17377,14.57947 -21.81608,24.84612 -34.21889,34.72497 -14.33309,10.68151 -27.77701,20.80183 -42.01356,32.95242 -12.26899,10.4713 -29.45712,21.85996 -42.87502,29.46729 -16.13817,-9.41712 -29.67012,-20.28671 -43.33899,-29.03551 -13.86358,-9.55606 -27.75758,-20.66409 -41.02327,-33.00553 -13.69642,-13.41608 -24.17436,-20.75037 -35.12041,-35.22157 -10.13419,-11.93769 -21.96194,-26.47274 -33.71237,-41.24126 -17.38366,-25.53352 -34.74815,-57.7278 -48.84329,-86.91046 -15.85712,-30.533 -24.92495,-65.88463 -36.01989,-99.71723 -10.48882,-32.82009 -19.18597,-68.42788 -23.40276,-105.52159 -4.72743,-39.87945 -6.17334,-81.83969 -4.31724,-123.34406 10.60724,-3.36732 20.49774,-3.44935 32.51929,-4.75106 12.42388,-1.60481 21.24145,-4.34832 32.09845,-6.79092 9.41026,-2.58205 19.30529,-7.12037 31.5691,-9.02704 11.6405,-3.19695 18.34793,-9.68499 30.02223,-13.29131 10.01966,-4.16048 19.85668,-6.45739 31.05655,-13.026462 12.38402,-3.667261 24.30124,-10.564839 33.97475,-14.480161 10.1719,-3.656297 22.74009,-11.165914 36.52866,-16.699491 10.35382,-5.552668 23.35992,-11.580516 35.88603,-19.54307 12.21811,7.209482 23.25547,13.951626 37.11066,18.899786 13.36435,4.377322 23.95882,13.860317 35.32222,18.02426 10.49285,4.423434 23.65064,13.061598 36.47193,16.545853 10.51388,3.950595 20.45655,8.148245 32.02762,12.556655 12.33242,4.14651 17.08764,8.46693 29.51197,10.6748 11.95252,4.38283 21.73106,6.39998 31.81839,7.30938 9.82131,4.19844 22.15544,5.0583 31.88211,6.43987 10.25783,0.42397 23.13121,5.73097 32.32401,6.17366 2.01219,42.13712 -0.79645,86.69868 -3.72922,123.39725 -4.03629,38.70451 -13.08646,76.73167 -23.41264,109.47742 -9.80501,36.46233 -19.28691,67.16626 -34.29243,97.34275 -16.09494,29.42666 -28.87954,57.58397 -49.95648,84.56742 0.9229,0.10266 -1.04982,0.94091 -1.75891,1.92401"
             inkscape:connector-curvature="0"
             sodipodi:nodetypes="cssscssscssscssscssscssscssscssscssscssscssscsssccssscssscssscssscssscssscssscsssc" />
        </g>
        <g
           id="g5326" />
        <g
           id="g5328" />
        <g
           id="g5330" />
        <g
           id="g5332" />
        <g
           id="g5334" />
        <g
           id="g5336" />
        <g
           id="g5338" />
        <g
           id="g5340" />
        <g
           id="g5342" />
        <g
           id="g5344" />
        <g
           id="g5346" />
        <g
           id="g5348" />
        <g
           id="g5350" />
        <g
           id="g5352" />
        <g
           id="g5354" />
      </g>
      <path
         style="display:inline;opacity:1;fill:#ffffff;fill-opacity:1;stroke:#000000;stroke-width:5.29166651;stroke-linecap:round;stroke-linejoin:round;stroke-miterlimit:4;stroke-dasharray:none;stroke-opacity:1"
         id="path5424"
         d="m 109.82478,144.36744 c 1.0791,0 2.15819,0 3.23729,0 1.25691,-0.0406 2.49855,0.0201 3.73897,0.23551 0.81151,0.1794 1.63885,0.22815 2.46617,0.26502 0.94018,0.0362 1.8814,0.032 2.82212,0.0324 0.95751,-5.3e-4 1.91501,-0.002 2.87252,-0.003 0.76368,-5.2e-4 1.52736,-7.9e-4 2.29104,-7.9e-4 0.5919,-3e-5 1.18381,-1e-5 1.77571,0 0.48724,1e-5 0.97448,1e-5 1.46172,1e-5 0.50428,0 1.00856,0 1.51284,0 0.46608,0 0.93215,0 1.39821,0 0.37713,0 0.75426,0 1.13139,0 0.89141,0.24119 1.82516,0.36044 2.67422,0.72358 1.67256,0.71534 2.64059,2.78009 2.9301,4.42934 0.2105,1.35318 -0.1465,2.74788 -0.81207,3.92817 -0.0832,0.14761 -0.34625,0.58108 -0.27656,0.42661 0.0898,-0.19912 0.22501,-0.37448 0.33751,-0.56172 0.15431,-0.13163 0.29233,-1.13041 0.28792,-0.69524 0.0854,0.88788 -0.44498,1.68489 -0.4672,2.55126 -0.0716,0.96005 -0.0631,1.92413 -0.0676,2.88624 -0.003,1.2802 -2e-4,2.56041 0.001,3.84061 10e-4,1.34774 10e-4,2.69548 0.002,4.04321 -5.3e-4,1.51336 -0.0983,3.01681 -0.0794,4.53096 -0.0786,2.01544 -0.52192,3.97623 -0.79484,5.96554 -0.4132,1.98365 -1.01062,3.91953 -1.6388,5.84483 -0.64632,1.9653 -1.5463,3.82723 -2.54145,5.63696 -1.01319,1.81931 -2.07212,3.61705 -3.21471,5.35812 -1.41919,1.993 -2.92224,3.92929 -4.52597,5.77794 -1.4527,1.87528 -3.17652,3.43877 -5.14507,4.75128 -1.53725,1.04762 -3.26838,1.77042 -4.99005,2.45526 -1.79768,0.65168 -3.66547,1.04725 -5.5053,1.54934 -2.09617,0.4309 -4.18831,0.86252 -6.32068,1.06008 -1.63521,0.11741 -3.27596,0.0938 -4.914017,0.0792 -1.292059,-0.0123 -2.584152,-0.0182 -3.876258,-0.0213 -1.678432,0.0243 -3.308043,-0.45739 -4.931296,-0.81874 -1.957374,-0.48883 -3.63968,-1.52985 -5.28089,-2.65734 -1.362173,-0.94907 -2.684521,-1.94597 -3.951917,-3.01849 -1.603293,-1.55665 -3.060155,-3.26773 -4.299352,-5.1271 -1.222378,-1.83986 -2.092555,-3.85713 -3.020163,-5.85283 -0.83815,-2.0608 -1.63747,-4.12533 -2.285455,-6.25494 -0.625541,-2.24852 -1.277025,-4.4711 -1.643576,-6.78079 -0.438296,-2.1672 -0.786273,-4.36045 -1.128366,-6.54667 -0.358841,-2.41112 -0.638881,-4.81754 -0.75298,-7.25595 -0.261128,-2.39524 -0.508961,-4.78076 -0.587502,-7.1906 -0.05081,-2.37015 -0.03191,-4.74105 -0.02363,-7.11153 0.02172,-2.36451 -0.03616,-4.72928 0.08518,-7.09118 0.160041,-2.38157 0.751358,-4.68938 1.183753,-7.02458 0.449694,-2.29559 1.255107,-4.48707 1.909792,-6.72644 0.77243,-2.13573 1.675789,-4.22679 2.600537,-6.30115 0.992618,-1.90463 1.818597,-3.88525 2.826644,-5.78168 1.171607,-2.01424 2.50348,-3.92909 3.761811,-5.88952 1.298216,-1.70464 2.708733,-3.33728 4.297929,-4.77501 1.160182,-0.99328 2.434757,-1.83958 3.691819,-2.70111 1.022328,-0.74969 2.14441,-1.39926 3.283145,-1.95743 1.11033,-0.54425 0.452946,-0.14725 0.97204,-0.47091 1.442405,-0.67799 2.901844,-1.25902 4.46931,-1.56726 0.848312,-0.24279 1.70911,-0.39551 2.568432,-0.598947 1.38221,-0.3509 2.77844,-0.54299 4.20441,-0.59235 0.4807,0.0246 1.32733,-0.18556 2.43192,-0.32755 0.89907,-0.11891 1.80633,-0.15734 2.71225,-0.17603 0.66419,-0.008 1.32845,-0.005 1.99267,-0.004 0.92694,-0.0463 1.81935,0.054 2.74101,0.16699 0.50412,0.0686 0.95749,0.29935 1.43813,0.44246 0.109,0.0324 -0.21453,-0.0768 -0.32496,-0.10391 1.00302,0.14903 1.8806,0.50413 2.79812,0.895557 0.049,0.0209 -0.0931,-0.0526 -0.14309,-0.0709 -0.15781,-0.0579 -0.3194,-0.10484 -0.47909,-0.15725 0.26484,0.0306 -0.53074,-0.0978 -0.39769,-0.0754 1.30635,0.21964 1.29718,0.12615 2.40587,0.60525 0.31215,0.13489 0.97274,0.52887 0.57235,0.29167 -0.20275,-0.0826 -0.8106,-0.33129 -0.60823,-0.24778 1.75137,0.72267 0.57646,0.14779 2.16483,1.13315 0.12342,0.0766 -0.23327,-0.17347 -0.35534,-0.25216 -0.35334,-0.22778 -0.73853,-0.31179 -1.1438,-0.45676 0.93568,0.18672 1.70533,0.61388 2.49273,1.11297 0.0535,0.0339 -0.10107,-0.0781 -0.15867,-0.10431 -0.85601,-0.38986 -0.67243,-0.33442 -1.11231,-0.45494 1.40529,0.3846 2.44386,0.97484 3.51983,1.83584 0.75436,0.51557 -1.15425,-0.21921 -1.19471,-0.67478 -0.0448,-0.50482 0.94851,0.39118 1.34826,0.70269 0.56575,0.44087 1.01722,1.01161 1.51468,1.5283 0.0465,0.0482 0.16609,0.20818 0.11523,0.16461 -0.62047,-0.53155 -1.21898,-1.08821 -1.82847,-1.63231 -3.00135,-2.20637 6.27725,4.22741 2.79894,2.79097 -0.91336,-0.37718 -1.13317,-1.71165 -1.99762,-2.19041 0.6008,0.47928 1.18482,0.9804 1.8024,1.43784 0.17171,0.12718 -0.59157,-0.61685 -0.44607,-0.46036 0.41998,0.45171 0.92434,0.83429 1.27227,1.34357 0.34212,0.50077 0.51425,1.09855 0.77138,1.64782 -0.52395,-0.80879 -1.04789,-1.61757 -1.57183,-2.42636 -0.0799,-0.0617 -0.31285,-0.25477 -0.2397,-0.18518 0.38769,0.3688 0.85282,0.66362 1.18426,1.0837 0.38773,0.49143 1.43713,2.01249 0.9492,1.62036 -0.68581,-0.55114 -1.15068,-1.34798 -1.57162,-2.12056 -0.17849,-0.3276 0.55138,0.50268 0.82707,0.75403 -0.42324,-0.8353 1.7777,2.35595 1.15398,1.65458 -0.29526,-0.33201 -0.53247,-0.71286 -0.76576,-1.09099 -0.0646,-0.10469 0.18867,0.1627 0.2564,0.26538 0.40678,0.61668 0.77539,1.2577 1.16308,1.88655 -0.33543,-0.53254 -1.19746,-0.99798 -1.0063,-1.59763 0.18125,-0.56862 0.75424,0.93117 1.05431,1.44705 0.22906,0.3938 0.36854,0.83416 0.52207,1.26309 0.0889,0.24836 0.38682,0.95461 0.20374,0.7647 -0.19703,-0.20439 -0.38469,-1.06435 -0.25111,-0.81384 0.20403,0.38261 0.30999,0.80993 0.46498,1.2149 -0.0441,-0.14092 -0.19023,-0.55861 -0.13237,-0.42275 0.56274,1.32131 0.97372,2.68146 1.41317,4.04551 0.29941,1.40916 0.79284,2.61405 1.13444,4.02269 0.217,-0.24394 -0.60422,-0.77764 -0.31425,-0.92761 0.18288,-0.0946 0.20211,0.35885 0.29697,0.54158 0.41311,0.79575 0.61971,1.64807 0.76331,2.52532 0.12482,1.15324 0.0838,2.31713 0.0799,3.47511 -8e-4,0.33136 -0.002,0.66273 -0.003,0.9941 -0.0204,7.48352 -10.60367,7.45469 -10.58329,-0.0288 v 0 c 7.9e-4,-0.33371 0.002,-0.66743 0.003,-1.00115 0.002,-0.64011 -0.009,-1.40358 0.0173,-2.00733 0.12134,0.4757 0.94565,2.58806 -0.25154,-0.22543 -0.14757,-0.34681 -0.23045,-0.71771 -0.34567,-1.07656 -0.25418,-0.99994 -0.68287,-2.00579 -0.87097,-3.04738 -0.56436,-1.75272 -0.63606,-2.33851 -1.26768,-3.58231 0.43614,0.8036 0.19976,0.3967 -0.4423,-1.20761 -0.0132,-0.033 0.0272,0.0656 0.043,0.0974 0.27204,0.54732 1.36525,2.02664 1.05197,1.50183 -0.41096,-0.68843 -0.9222,-1.31181 -1.3833,-1.96771 3.13122,4.57186 -1.66173,-2.15912 0.33917,0.60362 0.6671,0.55825 3.55272,3.03125 -1.39708,-1.93974 -0.34825,-0.34975 0.47758,0.87166 0.79712,1.24783 0.278,0.32727 0.67517,0.53427 0.97653,0.84016 0.14662,0.14882 -0.33936,-0.24377 -0.50904,-0.36565 -0.63331,-0.8969 -1.26662,-1.79381 -1.89993,-2.69071 1.0482,2.03921 0.15268,0.61767 1.76486,2.386 0.0927,0.10163 -0.22061,-0.16444 -0.32725,-0.25128 -0.36044,-0.29354 -1.40806,-1.20139 -1.00963,-0.96195 0.58763,0.35315 1.09219,0.82898 1.63829,1.24348 -1.61241,-0.83595 -0.80515,-0.87508 -2.88829,-2.71885 -0.4819,-0.42653 0.7216,1.08207 1.20031,1.5122 0.4048,0.36371 0.95637,0.52317 1.40606,0.82964 0.15291,0.10421 -0.34005,-0.14601 -0.51008,-0.21902 -0.73651,-0.60599 -1.48005,-1.20356 -2.20953,-1.818 -0.0325,-0.0273 -0.10446,-0.13265 -0.0728,-0.10439 0.42367,0.37844 0.79096,0.82415 1.25129,1.15704 0.29764,0.21524 1.30999,0.66147 0.99719,0.46892 -2.58133,-1.58894 -1.22404,-0.49366 -1.90335,-1.04733 -0.1922,-0.15437 -0.46665,-0.3647 0.32181,0.16838 0.0945,0.0639 -0.19929,-0.11139 -0.29729,-0.1699 -0.12112,-0.0723 -0.25195,-0.13177 -0.35997,-0.22247 -0.07,-0.0588 0.16269,0.0834 0.24404,0.12512 0.44776,0.14181 0.89552,0.28361 1.34328,0.42542 -0.929,-0.18267 -0.80891,-0.13099 -2.0872,-0.66318 -0.19522,-0.0813 -0.36806,-0.2084 -0.54981,-0.31648 -0.0634,-0.0377 -0.25342,-0.14892 -0.18532,-0.1207 1.30051,0.5389 -0.40837,7.9e-4 1.40794,0.51066 -1.03862,-0.30852 -1.96944,-0.53782 -2.82737,-1.22129 -0.17054,-0.13585 0.36917,0.2349 0.56795,0.32448 0.24456,0.11022 1.01088,0.35972 0.75714,0.27268 -0.34802,-0.11937 -0.69335,-0.24647 -1.04003,-0.36971 -1.2045,-0.60012 10e-4,-0.0458 0.25953,0.006 0.30131,0.0604 0.62967,-0.006 0.91574,0.10636 0.23781,0.0933 -0.51084,-0.0206 -0.76491,-0.0472 -0.22487,-0.0235 -0.44695,-0.0686 -0.67043,-0.10288 -0.158,-0.0426 -3.41272,-1.042 -1.1669,-0.5031 -0.67973,-0.0985 -1.27234,-0.20914 -1.92794,-0.40571 -0.15729,-0.0472 -0.62991,-0.16753 -0.46587,-0.16008 0.13973,0.006 0.27305,0.0609 0.40957,0.0913 1.67158,0.0903 -0.31992,0.0102 -0.69535,0.0365 -0.58756,-0.001 -1.17514,-0.003 -1.76269,0.002 -0.52757,0.01 -1.05701,0.0232 -1.5806,0.0927 -1.15088,0.14594 -2.29275,0.40782 -3.45697,0.4082 -0.78036,0.0154 -1.51116,0.13653 -2.26902,0.35472 -0.8629,0.18179 -1.830647,0.40938 -3.000128,0.68361 0.939451,-0.55394 -1.191459,0.56215 -1.267894,0.45774 -1.170091,0.60887 -2.335289,1.0386 -3.347133,1.8784 -0.973735,0.64167 -1.939216,1.30818 -2.834539,2.05553 0.142277,-0.31321 0.08793,-0.16271 -0.385786,0.3734 -0.493417,0.5584 -0.986825,1.11437 -1.4917,1.66232 -0.103545,0.11238 -0.203451,0.22805 -0.305176,0.34208 -1.111014,1.72569 -2.272636,3.4193 -3.339512,5.17213 -0.908574,1.6657 -1.586291,3.44309 -2.495773,5.10929 -0.740664,1.63447 -1.417444,3.30002 -2.103789,4.95765 -0.570402,1.92573 -1.284015,3.80268 -1.677019,5.776 -0.376738,1.8582 -0.824582,3.69652 -1.002652,5.58988 -0.146153,2.16948 -0.01093,4.35032 -0.06794,6.5232 -0.0079,2.24805 -0.0259,4.49646 0.01855,6.74425 0.06962,2.35908 0.375151,4.6859 0.58151,7.03526 0.09339,2.0798 0.324051,4.12929 0.648983,6.18469 0.225332,1.68312 -0.08252,-0.4889 0.373383,2.06351 0.265697,1.48756 0.31773,3.01054 0.752705,4.46792 0.243115,1.81285 0.865333,3.52219 1.308367,5.29093 0.495869,1.6557 1.119801,3.25026 1.752253,4.85657 0.712854,1.53408 1.320729,3.10199 2.272737,4.50948 0.661159,1.04178 1.506754,1.92493 2.301983,2.86562 0.989066,0.84527 2.030968,1.61702 3.096279,2.36348 0.531555,0.36603 1.037455,0.81945 1.603279,1.0515 0.269963,0.061 2.322127,0.47162 2.486023,0.54749 0.146137,0.0676 -0.643287,-0.002 -0.482939,0.013 0.210264,0.0195 0.422341,7.9e-4 0.63351,0.001 1.315329,0.003 2.630641,0.009 3.945921,0.0216 1.296307,0.0116 2.594457,0.0339 3.889427,-0.0387 1.52271,-0.12292 2.99903,-0.49162 4.50542,-0.73873 1.46284,-0.38868 2.93683,-0.70781 4.37697,-1.17722 1.04179,-0.40177 2.10823,-0.81548 3.03569,-1.44038 1.19981,-0.77635 2.15459,-1.75602 3.02381,-2.90397 1.32513,-1.47365 2.50028,-3.07688 3.6744,-4.66916 1.01415,-1.46711 1.85783,-3.05305 2.75052,-4.59527 0.689,-1.24128 1.32828,-2.48582 1.75701,-3.84042 0.44555,-1.32369 0.86714,-2.66997 1.20943,-4.00901 0.21089,-1.46107 0.51351,-2.90269 0.69119,-4.35812 -0.0175,-1.55606 0.072,-3.10082 0.0787,-4.65436 -1.7e-4,-1.34499 -5.3e-4,-2.68998 -0.002,-4.03497 -10e-4,-1.30035 -0.004,-2.60071 -7.9e-4,-3.90107 0.006,-1.30783 0.002,-2.61842 0.12341,-3.9219 0.0852,-0.72993 0.0756,-0.79357 0.21345,-1.47169 0.0786,-0.3863 0.11557,-0.50391 0.20256,-0.83399 0.0197,-0.0749 0.0578,-0.30238 0.0586,-0.22491 0.002,0.21129 -0.0363,0.42105 -0.0544,0.63158 0.0548,-1.15307 0.20206,-2.30562 0.70372,-3.36235 0.1659,-0.30115 0.3341,-0.60103 0.49769,-0.90345 0.0302,-0.0559 -0.0689,0.10709 -0.0976,0.16381 -0.0809,0.16008 -0.19329,0.31065 -0.23086,0.48603 -0.26756,1.24893 -0.43942,1.55875 -0.31952,2.39784 0.26536,1.29494 1.1046,2.86751 2.43469,3.38806 0.78129,0.30577 1.63011,0.39799 2.44516,0.59699 -0.37713,0 -0.75425,0 -1.13138,0 -0.46607,0 -0.93214,0 -1.39821,0 -0.50429,0 -1.00859,0 -1.51288,0 -0.48727,0 -0.97455,-1e-5 -1.46183,-1e-5 -0.5916,-1e-5 -1.18319,-3e-5 -1.77479,0 -0.76097,5e-5 -1.52194,1.9e-4 -2.28291,7.9e-4 -0.96203,8e-4 -1.92406,0.002 -2.8861,0.003 -1.10137,-5.3e-4 -2.20329,0.003 -3.30392,-0.0436 -1.29687,-0.061 -2.59292,-0.16128 -3.86719,-0.42351 -0.0821,-0.0167 -0.23744,0.0332 -0.24641,-0.0501 -0.009,-0.0795 0.31906,-0.01 0.23932,-0.0157 -0.6116,-0.0442 -1.23208,0.0344 -1.84438,0 -1.0791,0 -2.1582,0 -3.2373,0 -7.48354,0 -7.48354,-10.58333 0,-10.58333 z"
         inkscape:connector-curvature="0" />
      <g
         style="display:inline"
         transform="matrix(0.26458333,0,0,0.26458333,6.163612,62.392921)"
         id="g7494">
        <g
           id="g7462">
          <path
             inkscape:connector-curvature="0"
             id="path7460"
             d="m 363.76562,15.023438 c -11.96193,2.95416 -19.89388,13.619759 -31.38867,17.748046 -16.44253,7.728226 -33.15386,14.829614 -49.1167,23.525665 -20.05025,9.645594 -40.52235,18.506577 -61.63108,25.612089 -15.57545,6.411796 -30.58016,14.847668 -47.3987,17.906456 -21.70128,4.381656 -43.4684,8.416396 -65.11822,13.060526 -8.98616,2.32392 -18.964088,2.44275 -27.17475,6.74487 -7.614637,6.4135 -3.708376,17.29408 -4.978516,25.73829 -1.071724,64.44163 6.65172,128.78961 16.544922,192.36132 10.632954,55.69982 32.237964,108.58102 56.255324,159.6183 19.12484,38.22267 43.00682,73.8525 70.1196,106.78936 24.29295,28.17629 54.35999,50.51073 82.40364,74.79776 19.89358,16.31352 38.90287,34.52249 63.02026,44.2399 8.08335,1.09114 15.44358,-3.06607 21.29347,-8.20039 26.09773,-18.53598 51.61977,-37.87196 77.66168,-56.48329 31.42273,-25.7223 55.87294,-58.89025 81.21478,-90.42179 27.13872,-37.75502 45.84365,-80.66959 64.02616,-123.25951 32.19289,-84.31364 46.25997,-174.67875 50.28283,-264.57219 0.2917,-20.01096 1.02755,-40.59942 -1.29337,-60.15854 -6.50741,-4.48935 -14.91567,-2.19137 -22.08208,-5.0547 C 598.32475,108.05163 560.72054,98.490562 524.08008,86.003906 498.69133,79.219055 474.51849,68.682639 451.52169,56.06363 426.52005,43.675978 401.91232,30.402932 377.03516,17.847656 372.64631,16.828334 368.032,16.23913 363.76562,15.023438 Z m 4.97071,13.470703 c 15.59625,7.938715 30.83394,16.610427 47.0625,23.220703 25.50555,12.773745 50.26679,27.092189 77.36639,36.29924 29.5971,12.173026 59.83541,23.365306 91.426,28.484196 16.01626,2.45201 32.38866,4.54654 48.17286,8.45267 6.63501,0.19986 14.19984,3.77866 14.71834,11.2385 1.29528,10.2594 -0.0673,20.53598 0.68444,30.86325 0.54341,68.58701 -5.96503,137.78438 -26.29332,203.54266 -12.49316,45.83029 -27.67244,91.32804 -51.42447,132.69237 -14.42313,27.24565 -31.41405,53.07327 -50.73742,77.08876 -18.93914,25.71038 -40.11706,50.03262 -65.6409,69.43109 -18.96883,14.55987 -37.5208,29.56866 -56.70875,43.80064 -8.91486,5.87155 -18.27924,12.65982 -28.94598,14.37616 -11.89221,-1.36763 -19.39875,-12.04186 -29.81696,-16.78237 C 274.83588,649.73107 220.05505,594.00094 182.15912,527.8709 158.42262,486.69347 138.85024,443.04986 125.21557,397.47983 112.9679,357.53063 100.56942,317.3709 95.297286,275.78126 88.519564,227.54641 87.666624,178.64568 89.927734,130.04297 c 27.331446,-10.0532 57.635166,-6.72752 84.428606,-17.88894 20.78501,-4.79758 39.80807,-14.058787 59.38377,-22.262276 43.27984,-17.826097 86.50913,-35.953683 126.9513,-59.657379 2.49093,-1.040587 5.36846,-2.256338 8.04492,-1.740234 z"
             style="fill:#ffffff" />
        </g>
        <g
           id="g7464" />
        <g
           id="g7466" />
        <g
           id="g7468" />
        <g
           id="g7470" />
        <g
           id="g7472" />
        <g
           id="g7474" />
        <g
           id="g7476" />
        <g
           id="g7478" />
        <g
           id="g7480" />
        <g
           id="g7482" />
        <g
           id="g7484" />
        <g
           id="g7486" />
        <g
           id="g7488" />
        <g
           id="g7490" />
        <g
           id="g7492" />
      </g>
      <g
         style="display:none"
         id="g7562">
        <path
           style="opacity:0.95;fill:#000000;fill-opacity:1;stroke:#000000;stroke-width:0.26458332;stroke-linecap:round;stroke-linejoin:round;stroke-miterlimit:4;stroke-dasharray:none;stroke-opacity:1"
           id="path7534"
           d="m 62.156665,187.60107 c 0.72998,-0.98896 1.380275,-2.00574 2.231117,-2.90011 0.450959,-0.49157 1.001289,-0.88542 1.462522,-1.36551 0.30808,-0.32067 0.569158,-0.77977 0.833733,-1.13395 0.865132,-1.00574 1.542585,-2.14196 2.280423,-3.23896 0.738097,-1.24617 1.634082,-2.37551 2.516394,-3.51917 0.652732,-0.91223 1.274103,-1.84242 2.007946,-2.69802 0.464434,-0.88585 1.052344,-1.76557 1.781559,-2.51093 0.494067,-0.78426 1.043792,-1.56178 1.637292,-2.29194 0.654793,-0.80729 1.278197,-1.62653 1.833639,-2.5065 0.629095,-0.97661 1.335982,-1.9096 1.847948,-2.95636 0.716973,-1.11594 1.429475,-2.23712 2.195071,-3.32206 0.495509,-0.72018 0.906158,-1.49109 1.470646,-2.16229 0.928476,-1.104 0.264801,-0.19087 0.696503,-0.79901 0.748898,-0.74803 1.428411,-1.56213 2.02647,-2.43556 0.869209,-0.9347 1.697045,-1.89687 2.501807,-2.88697 0.660384,-0.95065 1.506051,-1.7494 2.164951,-2.70155 0.631203,-0.91458 1.382331,-1.77141 1.966005,-2.71789 0.697611,-1.01246 1.539986,-1.91492 2.245913,-2.91983 0.784529,-0.82838 1.427242,-1.77249 2.100537,-2.68989 0.632926,-0.96483 1.41953,-1.81287 2.081999,-2.75538 0.88297,-1.05104 1.70352,-2.15189 2.56628,-3.21844 0.99468,-1.12445 1.92225,-2.29807 2.84391,-3.48301 1.0755,-1.13189 2.16765,-2.26025 3.14594,-3.4788 0.85004,-0.89057 1.76484,-1.70512 2.64339,-2.5627 0.49335,-0.54555 1.07492,-0.97893 1.56402,-1.52975 0.1334,-0.12417 0.27236,-0.24262 0.40021,-0.3725 0.0423,-0.043 -0.18165,0.15726 -0.14288,0.11106 0.15245,-0.18166 0.33029,-0.34073 0.48584,-0.51974 0.0244,-0.0281 -0.11537,0.0929 -0.0907,0.065 0.47198,-0.53372 0.75205,-0.68878 0.45442,-0.51462 0.52184,-0.52248 0.80879,-0.86409 1.37933,-1.44311 0.17078,-0.15728 0.34802,-0.30782 0.51234,-0.47183 0.0325,-0.0324 -0.0706,0.0647 -0.11525,0.0755 -0.10633,0.0257 0.89064,-0.95927 0.65907,-0.78299 0.048,-0.028 1.4588,-1.67331 0.8404,-0.93313 0.29122,-0.30298 0.59029,-0.59859 0.87366,-0.90892 0.0456,-0.0499 -0.12316,0.065 -0.16462,0.11843 -0.094,0.121 -0.36723,0.49036 -0.26995,0.372 1.03818,-1.2632 0.38198,-0.54066 0.70832,-0.89834 0.2033,-0.26439 1.06566,-0.95121 0.56052,-0.54126 -0.91145,1.60273 -0.2088,-0.0865 0.31588,-0.52937 0.23548,-0.19877 0.5062,-0.35159 0.75929,-0.52738 0.29097,-0.21986 -0.52898,0.42438 -0.75463,0.6755 -0.12331,0.13724 -0.21981,0.41433 -0.26856,0.60792 -0.0109,0.0435 -0.0501,0.16833 -0.0233,0.13238 0.45215,-0.60769 0.87173,-1.23895 1.3076,-1.85843 -0.40868,0.28998 -0.38814,0.22352 -0.61442,0.49251 -0.032,0.0381 -0.12037,0.15729 -0.0834,0.12389 1.33547,-1.20825 0.71192,-0.91423 1.43992,-1.22552 0.54995,-0.21174 -0.12632,0.0349 -0.71419,0.52217 -0.10996,0.0912 -0.17248,0.22816 -0.24861,0.34901 -0.036,0.0572 -0.13389,0.23196 -0.0868,0.18342 1.40352,-1.44625 0.63556,-1.00886 1.31904,-1.37851 0.68051,-0.19059 2.77977,-0.90894 0.21456,0.0823 0.56877,-0.33924 0.89624,-0.63476 1.70048,-0.8302 0.6746,-0.21444 -0.27635,0.1258 -0.43976,0.25896 2.60413,-1.3537 -0.37297,0.0623 1.75109,-0.96729 0.36163,-0.23168 0.59762,-0.3541 1.10416,-0.63317 0.72719,-0.31819 1.43614,-0.64786 2.20437,-0.86342 0.46718,-0.1175 0.13338,-0.0418 0.79453,-0.15273 0.093,-0.0156 -0.33709,0.11821 -0.27947,0.0436 0.0718,-0.093 0.3752,-0.22334 0.3335,-0.11356 -0.0431,0.11339 -0.44801,0.18498 -0.33981,0.13017 0.25552,-0.12943 0.52184,-0.23636 0.78275,-0.35454 0.66761,-0.22523 1.47739,-0.21478 1.99042,-0.33164 0.76706,-0.13445 1.51913,-0.28923 2.27403,-0.48001 0.71798,-0.10916 1.40308,-0.29497 2.10212,-0.47769 0.41174,-0.13115 0.84766,-0.14984 1.26736,-0.23594 0.0919,-0.0188 -0.30125,0.11667 -0.2803,0.0252 0.012,-0.0526 0.71734,-0.25477 0.91884,-0.31682 0.67637,-0.11871 1.31424,-0.37546 1.98089,-0.54308 0.74348,-0.13835 -0.0944,-0.061 1.17443,-0.48693 0.47557,-0.15471 0.97576,-0.17875 1.47132,-0.17619 0.71716,-0.14363 -1.68761,0.66463 -0.33637,-0.0551 0.64117,-0.37984 1.35023,-0.47247 2.07899,-0.43612 0.20603,0.0247 0.40499,0.0275 0.61186,0.0364 1.06239,-0.0291 -0.25129,0.0752 -0.65975,0.28102 -0.17202,0.16009 -0.67006,0.65778 -0.51609,0.48026 0.60827,-0.70128 1.25004,-1.07386 2.14668,-1.21576 0.81178,0.4683 1.7153,0.80503 2.43534,1.40489 0.31427,0.26181 0.30826,1.92383 0.31305,2.34752 0.0653,1.04587 -0.0651,2.07175 -0.24478,3.09911 -0.1185,0.64677 -0.17933,1.30019 -0.20781,1.95639 -0.017,0.48376 -0.0167,0.96781 -0.016,1.45179 0.001,0.43268 0.002,0.86535 0.003,1.29803 5.3e-4,0.39004 5.3e-4,0.78008 5.3e-4,1.17011 1e-5,0.29275 0,0.58549 -1e-5,0.87824 -1e-5,0.34344 -1e-5,0.68688 -1e-5,1.03032 0,0.37195 0,0.7439 0,1.11585 0,0.29088 0,0.58177 0,0.87265 0,0.35045 0,0.70091 0,1.05136 0,0.33127 0,0.66253 0,0.99379 0,0.33311 0,0.66622 0,0.99933 0,0.23822 0,0.47645 0,0.71469 0,0.22039 0,0.44078 0,0.66117 -0.0355,0.40155 0.13711,1.23656 -0.15071,-0.35264 -0.14839,-0.21933 -0.62608,-0.85132 -0.44516,-0.65797 0.98246,1.04998 1.01432,2.20802 0.51718,3.54654 -0.48018,1.01199 -1.00644,1.99897 -1.69203,2.88661 -0.33478,0.73966 -0.97011,1.25855 -1.46593,1.88215 -0.52516,0.8698 -1.10182,1.69699 -1.76775,2.46412 -0.52437,0.74407 -1.04835,1.48364 -1.6477,2.16817 0.038,-0.028 0.1358,-0.12582 0.11407,-0.0839 -0.39736,0.76636 -1.01585,1.44915 -1.60494,2.06921 -0.54447,0.61093 -0.8745,0.95745 -1.50469,1.48783 0.10162,0.0646 0.14277,-0.22814 0.25411,-0.21866 0.0977,0.008 -0.12067,0.15465 -0.18517,0.22847 -0.77649,0.88862 0.44084,-0.53393 -0.42373,0.50377 0.80975,-1.03399 -0.49247,0.70933 -0.60766,0.86814 -0.59393,0.70631 -0.98835,1.08634 -1.5785,1.6531 0.69003,-0.41127 -0.82271,0.66087 -0.94692,0.7585 -0.12692,0.0998 0.26352,-0.19107 0.41177,-0.25499 0.002,-0.001 0.014,-0.0136 -0.2851,0.30427 -0.0502,0.0532 -0.10562,0.10191 -0.15068,0.15953 -0.0343,0.0439 0.15059,-0.1633 0.11821,-0.11801 -0.10957,0.15322 -0.21101,0.31483 -0.34355,0.44867 -0.60129,0.60719 -0.90546,0.80224 -0.51313,0.53639 -0.72877,0.72666 -0.37252,0.5328 -1.23442,1.44807 -0.32558,0.54069 -0.84962,0.9248 -1.16586,1.35101 -0.37576,0.71042 -1.08899,1.17603 -1.51312,1.83941 -0.45733,0.54192 -1.01647,1.05894 -1.36814,1.6833 -0.62498,0.67797 -1.21944,1.34924 -1.83613,2.05616 -0.51686,0.57077 -0.99509,1.15024 -1.4843,1.72279 -0.49049,0.62831 -0.98489,1.25471 -1.51284,1.85444 -0.278,0.42638 -0.66495,0.71805 -1.01801,1.08313 -0.023,0.0238 0.10112,-0.0686 0.0924,-0.0367 -0.0639,0.23384 -0.27476,0.39957 -0.41908,0.59433 -0.50416,0.65552 -0.99935,1.32566 -1.49417,1.99993 -0.63449,0.75732 -1.19085,1.5682 -1.84042,2.31327 -0.74177,0.63821 -1.23134,1.48985 -1.84986,2.2397 -0.61303,0.672 -1.13662,1.36847 -1.61354,2.15137 -0.74183,1.18052 -1.68181,2.23267 -2.57512,3.30617 -0.83871,1.14553 -1.77583,2.20687 -2.67245,3.30337 -0.75529,1.01478 -1.62288,1.93678 -2.42347,2.91369 -0.81559,1.03329 -1.90793,1.81961 -2.71188,2.8573 -0.97986,0.97398 -1.77469,2.104 -2.66688,3.15115 -0.90343,0.93378 -1.57198,2.04464 -2.36971,3.06169 -0.605597,0.93178 -1.45443,1.69093 -2.032976,2.63632 -0.671439,0.8253 -1.340617,1.65009 -1.976411,2.50352 -0.125857,0.15817 -0.251751,0.3163 -0.377574,0.47449 -0.21499,0.2703 -0.389218,0.58704 -0.608481,0.85043 -0.561138,0.67407 -0.903864,0.68102 -0.550486,0.66129 -0.517803,0.726 -0.911501,1.28509 -1.395921,1.92677 -0.449744,0.57279 -0.692774,0.89947 -1.050589,1.36644 0.194707,-0.24445 -0.529719,0.61761 -0.418351,0.44669 0.763606,-1.17192 0.218175,-0.0261 -0.122687,0.31899 -0.2594,0.26265 -0.60179,0.4277 -0.902687,0.64155 -0.698482,0.37089 0.505957,-0.62393 0.854051,-0.79993 0.214199,-0.1083 -0.258297,0.41057 -0.432417,0.57577 -0.229227,0.2175 -0.507346,0.37689 -0.764775,0.56014 -0.03117,0.0222 -0.127392,0.0828 -0.100367,0.0557 0.279469,-0.28006 0.573699,-0.54499 0.860549,-0.81748 -0.265154,0.29893 -0.552415,0.57963 -0.795462,0.8968 -0.116019,0.1514 0.265446,-0.27508 0.412309,-0.3968 0.03012,-0.0249 -0.03308,0.0717 -0.05718,0.10248 -0.462476,0.59129 -0.498399,0.63575 -0.985036,1.09801 -0.09527,0.0763 -0.321622,0.34569 -0.285819,0.22898 0.03807,-0.12411 0.186063,-0.18326 0.293947,-0.25547 0.127809,-0.0855 -0.17371,0.25415 -0.269206,0.37471 -0.07934,0.10015 -0.277161,0.33071 -0.384736,0.45662 -0.304755,0.22062 -0.620424,0.4269 -0.914267,0.66185 -0.17444,0.13948 0.363397,-0.2607 0.555363,-0.37487 0.03177,-0.0189 -0.04083,0.0632 -0.06986,0.0861 -0.293582,0.23138 -0.588521,0.46172 -0.895646,0.67479 -0.07542,0.0523 -0.317394,0.17944 -0.248391,0.1189 0.249166,-0.21858 0.529651,-0.39863 0.794475,-0.59794 -0.69201,0.7488 -0.172159,0.26205 -1.139801,0.93557 -0.144159,0.10033 0.561705,-0.41413 0.443963,-0.2838 -0.426937,0.47258 -0.359434,0.35877 -1.012664,0.79982 0.228224,0.46196 0.897395,-1.3104 0.881136,-0.89262 -0.02138,0.54936 -1.036536,1.13959 -1.294309,1.37034 0.545025,-0.37341 0.579212,-0.42486 0.174318,-0.0628 -0.378283,0.39297 -0.822407,0.53328 -1.304007,0.7908 -0.154022,0.0824 0.307636,-0.18333 0.480348,-0.20932 0.121589,-0.0183 -0.212733,0.12336 -0.319101,0.18504 0.21884,0.0242 1.013503,-1.10633 0.798061,-0.79795 -0.206389,0.29542 -0.424638,0.58886 -0.691489,0.83106 -0.368509,0.33445 -1.762175,0.88611 -1.381876,0.56512 0.410003,-0.34606 0.946062,-0.50636 1.419095,-0.75955 0.04095,-0.0567 0.169786,-0.22219 0.122857,-0.17027 -0.198769,0.21992 -0.298202,0.58004 -0.579023,0.67498 -1.917181,0.64811 -2.702229,0.64868 -3.973975,-0.70285 0.01789,0.0319 0.08231,0.11847 0.05365,0.0957 -0.34072,-0.27017 -1.145077,-1.17214 -1.531594,-1.29449 -0.857459,-0.59101 -1.667079,-1.24503 -2.483292,-1.89027 -0.57151,-0.29901 -1.272225,-0.71839 -1.736714,-0.99734 -0.870082,-0.43368 -1.620332,-1.10096 -2.320803,-1.76615 -0.309711,-0.28169 -0.585751,-0.65606 -0.971416,-0.84251 -0.90034,-0.55502 -0.264366,-0.25008 -1.016293,-0.61322 -1.970836,-1.27652 -0.264187,-0.17586 -0.284181,-0.17547 -0.213799,0.004 -0.866468,-0.48625 -1.079204,-0.59581 -0.401002,-0.1831 0.135678,0.0706 -0.834564,-0.61396 -0.133549,-0.0942 0.538583,0.33414 0.376345,0.31431 -0.213034,-0.026 -0.936699,-0.60965 -1.088781,-0.71764 0.116213,0.0864 0.49267,0.2739 0.348639,0.25909 -0.28307,-0.0291 -1.576028,-0.9773 -1.775217,-1.12529 0.927105,0.65855 -1.115618,-0.58165 -1.17272,-0.61902 -0.361866,-0.18215 -0.147077,-0.0837 -0.883177,-0.35393 -0.972743,-0.70451 -0.614971,-0.11072 -1.910141,-1.23865 -0.354303,-0.20741 -0.587489,-0.57067 -0.819663,-0.89621 -1.800889,-2.73085 2.061109,-5.27769 3.861998,-2.54684 v 0 c -0.646803,-0.71991 -0.08468,-0.004 0.195922,0.13925 -0.05577,-0.0375 -0.109485,-0.0783 -0.16731,-0.11259 -0.109622,-0.065 0.328647,0.0778 0.322625,0.20511 -0.004,0.0852 -0.157887,-0.0646 -0.236831,-0.0969 0.277138,0.14413 0.554276,0.28826 0.831414,0.43239 0.144978,0.0824 -0.300797,-0.14414 -0.451194,-0.21621 0.707675,0.26909 1.261885,0.48454 1.894422,0.88435 0.641733,0.38832 0.986895,0.5376 1.606285,0.96002 -0.09416,-0.0504 -0.379113,-0.19658 -0.282477,-0.15113 0.851389,0.40044 0.741228,0.54683 1.602504,0.92558 -0.08409,-0.0437 -0.333774,-0.1796 -0.252256,-0.13124 1.778254,1.05505 -1.220147,-0.88038 1.230516,0.77459 0.133244,0.09 -0.29828,-0.1372 -0.411945,-0.25092 -0.08835,-0.0884 0.222075,0.1147 0.33311,0.17205 0.212106,0.12563 1.934985,1.13229 0.865648,0.52189 0.886365,0.406 1.456137,0.86149 1.726565,0.99341 0.663752,0.45011 1.281247,0.97031 1.825212,1.561 -0.04598,-0.0259 -0.178972,-0.11094 -0.137943,-0.0777 0.55967,0.45285 0.781156,0.67785 1.187156,0.88263 0.73024,0.41654 1.4824,0.86147 2.498373,1.48794 0.696582,0.55347 1.390716,1.10893 2.115085,1.62666 0.84415,0.58652 1.573231,1.28386 2.359215,1.93639 0.257681,0.28306 0.667949,0.69098 -0.678727,-0.23834 -0.121148,-0.0836 0.562411,0.0796 0.422994,0.12678 -4.664233,1.57983 -1.062477,-0.43379 -2.595615,0.99667 -0.105304,0.0983 0.155525,-0.24244 0.233288,-0.36366 0.533392,-0.33133 1.096087,-0.61959 1.600174,-0.994 0.131286,-0.0975 -0.310994,0.1013 -0.466492,0.15195 -0.149805,0.0974 -0.32398,0.16503 -0.449414,0.29232 -0.199853,0.2028 -0.692877,0.90364 -0.512249,0.68354 0.240946,-0.29359 0.434462,-0.62628 0.69333,-0.90419 0.116988,-0.1256 0.281824,-0.196 0.422735,-0.294 2.140223,-1.05441 -0.594632,0.41222 0.369343,-0.23216 0.213053,-0.16443 0.371348,-0.51991 0.639159,-0.4933 0.258675,0.0257 -0.407672,0.3282 -0.573736,0.5282 -0.105883,0.12751 -0.324061,0.5774 -0.230629,0.4405 0.898448,-1.31641 0.111384,-0.55941 1.238967,-1.45786 -1.118293,0.9135 0.469344,-0.44145 0.604155,-0.53463 0.117282,-0.0811 -0.229817,0.17034 -0.331565,0.27022 -0.06526,0.0641 -0.11075,0.14555 -0.166127,0.21832 1.348327,-1.20837 1.344036,-1.0921 0.549402,-0.45658 -0.06182,0.0494 0.09274,-0.1299 0.151696,-0.18272 0.277826,-0.2489 0.560491,-0.49317 0.856335,-0.72036 0.18606,-0.14289 -0.35098,0.31137 -0.526471,0.46705 0.374002,-0.43775 0.688039,-0.94158 1.140603,-1.3021 -0.255032,0.32747 0.132871,-0.17495 0.165219,-0.17653 0.110326,-0.005 -0.105439,0.1952 -0.172736,0.28279 -0.05509,0.0717 0.08077,-0.1631 0.135861,-0.2348 0.213934,-0.27842 0.403424,-0.58412 0.669452,-0.81328 0.201363,-0.17347 -0.314421,0.42858 -0.471631,0.64287 3.408937,-3.77464 -1.918544,2.09719 1.716019,-1.65038 -1.007335,0.83763 -0.264247,0.0989 -0.913932,1.06532 -0.04847,0.0721 0.05355,-0.1668 0.09752,-0.24175 0.346273,-0.5902 0.371845,-0.69081 0.691235,-1.01113 0.250803,-0.34668 0.713115,-0.92867 1.050536,-1.36637 0.04693,0.29604 -0.0065,0.0284 0.401904,-0.58163 0.151707,-0.2266 0.318043,-0.44458 0.501515,-0.64632 0.03181,-0.035 -0.07305,0.17331 -0.04705,0.13383 0.110006,-0.16706 0.200552,-0.34615 0.300829,-0.51923 0.51308,-0.66476 0.990785,-1.2838 1.625817,-2.10999 0.581252,-0.77719 1.17684,-1.54938 1.81751,-2.27684 0.701704,-1.03628 1.548588,-1.95328 2.276935,-2.97342 0.857361,-1.05714 1.53779,-2.25331 2.505499,-3.22476 0.895469,-0.98026 1.598872,-2.1371 2.579302,-3.04773 0.852,-1.00737 1.82731,-1.88866 2.71648,-2.8629 0.80895,-0.97634 1.66962,-1.90962 2.43238,-2.92445 0.91172,-1.08823 1.8245,-2.17158 2.67843,-3.31057 0.75662,-0.90694 1.57038,-1.78098 2.19438,-2.7775 0.5928,-0.94972 1.26763,-1.82927 1.98706,-2.67135 0.64837,-0.77671 1.15348,-1.67941 1.93342,-2.33769 0.57455,-0.64938 1.04316,-1.37535 1.61152,-2.03062 0.50323,-0.66699 1.01136,-1.33285 1.50008,-2.00782 0.64585,-0.84149 1.0037,-1.24045 1.60038,-1.95244 0.54793,-0.58686 0.99746,-1.25146 1.51828,-1.8605 0.47302,-0.36503 0.95817,-1.27304 1.4495,-1.68366 0.49824,-0.55987 0.9904,-1.19656 1.52875,-1.71763 0.0503,-0.0487 -0.0618,0.1255 -0.0927,0.18826 0.46282,-0.68214 1.00278,-1.35734 1.54966,-1.94182 0.49814,-0.6337 1.08541,-1.17718 1.52639,-1.85692 0.506,-0.65518 1.10323,-1.1599 1.58952,-1.83357 0.37338,-0.30897 0.60709,-0.89349 1.01624,-1.21646 0.16406,-0.16659 0.30542,-0.3591 0.49218,-0.49977 0.11511,-0.0867 -0.27835,0.47902 -0.27341,0.33498 0.005,-0.15797 0.67637,-0.80103 0.77582,-0.97771 0.35391,-0.37601 0.64204,-0.65051 1.09871,-0.97843 0.15124,-0.1086 -0.27334,0.25294 -0.4129,0.3762 -0.0262,0.0231 0.0485,-0.0505 0.0727,-0.0757 0.16664,-0.1796 0.33329,-0.35919 0.49994,-0.53879 -0.0608,0.0761 -0.24749,0.30081 -0.1825,0.22824 0.2295,-0.25627 0.38101,-0.63656 0.70419,-0.75447 0.0794,-0.029 -0.20902,0.26522 -0.15267,0.20228 0.38916,-0.43469 0.6064,-0.77075 0.23231,-0.22552 0.1973,-0.29127 0.38798,-0.54533 0.60243,-0.81735 0.0619,-0.0785 0.18586,-0.3369 0.18343,-0.23703 -0.003,0.12895 -0.25699,0.44699 -0.18592,0.33936 0.16104,-0.24393 0.30417,-0.49922 0.45625,-0.74883 -0.14212,0.23142 -0.0201,0.0274 0.30638,-0.37839 0.1704,-0.21177 0.35452,-0.41274 0.54598,-0.60567 0.0951,-0.0959 0.21091,-0.16877 0.31635,-0.25316 -0.8532,0.87687 0.92505,-0.99155 0.94032,-1.02413 0.38385,-0.45766 0.9448,-1.18872 1.34468,-1.83797 0.48955,-0.63407 1.01084,-1.35106 1.51243,-2.01923 0.6254,-0.71819 1.10755,-1.53465 1.64966,-2.32269 0.5592,-0.69356 1.07097,-1.10048 1.49812,-1.92185 0.4643,-0.39011 0.55991,-1.11699 0.93919,-1.58167 0.0307,-0.0798 0.0702,-0.32219 0.092,-0.23949 0.0405,0.1542 -0.0618,0.32128 -0.0294,0.4774 0.0706,0.34088 0.24665,0.65256 0.33339,0.98969 0.0232,0.0902 -0.20994,-0.30399 -0.14087,-0.24144 0.19439,0.17603 1.1791,1.52655 -0.21109,-0.3376 -0.14751,-0.6075 -0.29405,-0.99224 -0.26139,-1.55604 0,-0.22039 0,-0.44078 0,-0.66117 0,-0.23824 0,-0.47647 0,-0.71469 0,-0.33311 0,-0.66622 0,-0.99933 0,-0.33126 0,-0.66252 0,-0.99379 0,-0.35045 0,-0.70091 0,-1.05136 0,-0.29088 0,-0.58176 0,-0.87265 0,-0.37195 0,-0.7439 0,-1.11586 0,-0.34346 0,-0.68693 1e-5,-1.0304 1e-5,-0.29261 2e-5,-0.58522 1e-5,-0.87783 -2e-5,-0.38861 -1e-5,-0.77723 -5.3e-4,-1.16585 -5.3e-4,-0.43206 -10e-4,-0.86411 -0.003,-1.29617 -8e-4,-0.55609 -2.6e-4,-1.11227 0.0208,-1.66807 0.04,-0.85298 0.11929,-1.70302 0.27229,-2.54395 0.13167,-0.75219 0.24722,-1.48272 0.1758,-2.25254 -10e-4,-0.12701 -0.002,-0.25401 -0.004,-0.38101 -0.002,-0.0811 -0.004,-0.16217 -0.005,-0.24327 -7.9e-4,-0.0586 -0.0344,-0.22858 -0.009,-0.17569 0.0614,0.1283 0.0367,0.32049 0.15668,0.39695 0.73598,0.46905 1.55496,0.79294 2.33244,1.18941 0.75843,-0.14833 1.84677,-1.63675 0.40521,-0.046 -0.66617,0.39074 -1.39532,0.60366 -2.16736,0.5344 -0.22532,-0.01 -0.45169,-0.015 -0.67583,-0.0396 -0.15755,-0.0134 0.88086,-0.25996 0.35715,-0.0992 -0.58101,0.30924 -1.17483,0.63691 -1.87067,0.59766 -0.10187,-10e-4 -0.29438,0.0112 -0.0294,-0.0435 -0.20543,0.0158 -1.01399,0.59068 -1.49,0.57564 -0.62331,0.13865 -1.20772,0.41743 -1.8419,0.50698 -0.16543,-0.008 0.009,-0.008 -0.32508,0.1083 -0.57368,0.20007 -1.09311,0.34915 -1.68148,0.44584 -0.70005,0.16264 -1.38599,0.38203 -2.10177,0.4776 -0.79558,0.2005 -1.59335,0.3634 -2.39901,0.50971 -0.4607,0.10137 -1.0028,0.25077 -1.44996,0.17607 0.0833,-0.0551 0.33997,-0.20906 0.25005,-0.16544 -0.61921,0.30038 -1.15708,0.6486 -1.85761,0.71211 -0.45384,0.12165 -0.80746,0.33193 -1.25418,0.50723 -0.0157,0.006 0.0205,-0.0268 0.0307,-0.0402 -0.56766,0.30696 -1.12521,0.64686 -1.72557,0.91432 1.37872,-0.87094 -2.40657,1.45936 -0.11837,-0.0587 -0.48744,0.44492 -1.04348,0.81016 -1.70976,0.9228 -0.29718,0.0676 -0.28147,0.071 0.58478,-0.34482 0.16348,-0.0785 -0.69969,0.49403 -0.70079,0.45077 -0.003,-0.12589 0.20323,-0.14877 0.30485,-0.22316 -4.33009,1.87901 -0.35154,0.10625 -0.98973,0.44122 -0.47725,0.25192 -0.47018,0.2596 0.83923,-1.11363 0.0889,-0.0932 -0.0872,0.24352 -0.14971,0.35611 -0.42156,0.75957 -0.48752,0.65599 -1.37004,1.27673 -0.008,0.002 -0.0154,0.005 -0.0231,0.007 0.31836,-0.33564 0.63672,-0.67128 0.95508,-1.00692 0.0587,-0.0551 -0.071,0.1445 -0.11103,0.21433 -0.11479,0.20051 -0.30483,0.49864 -0.46266,0.64865 -0.20668,0.19644 -0.44358,0.3584 -0.66536,0.53761 0.36084,-0.57863 0.68377,-1.18269 1.08252,-1.73587 0.0567,-0.0787 -0.0199,0.19337 -0.0392,0.28848 -0.062,0.30602 -0.18889,0.76065 -0.37373,0.99467 -0.5638,0.71382 -0.5791,0.70145 -1.05697,0.96161 0.89485,-0.7194 0.34802,-0.3227 0.89944,-1.23083 0.0736,-0.1212 -0.0619,0.27915 -0.12232,0.40741 -0.12299,0.26093 -0.27208,0.50923 -0.42501,0.75381 -0.0442,0.0708 -0.10959,0.12588 -0.16439,0.18882 -0.0175,0.0175 -0.58976,0.60385 -0.58043,0.51486 0.0274,-0.26154 0.71753,-0.68995 0.0119,0.0348 -0.8486,0.87291 1.17662,-1.72409 -0.2817,0.35431 -0.17318,0.24682 -0.7611,0.90685 -0.65385,0.62505 0.0981,-0.25776 0.34042,-0.43403 0.51063,-0.65105 -0.37805,0.58654 -0.77752,1.06587 -1.24599,1.55399 -0.0631,0.0756 -1.60201,1.87448 -1.17544,1.32699 -0.56642,0.61984 -0.85105,0.89177 -1.35265,1.42498 -0.0493,0.0524 0.0847,-0.11634 0.12698,-0.17451 -0.51305,0.61857 -0.77212,0.89669 -1.41085,1.59325 -0.11032,0.11648 -0.22063,0.23296 -0.33095,0.34944 -0.13591,0.12418 -0.25932,0.2636 -0.40773,0.37255 -0.0334,0.0245 0.0823,-0.14193 0.0533,-0.11232 -0.37372,0.38164 -0.70029,0.79856 -1.10652,1.14869 -0.17133,0.15708 -0.37966,0.27209 -0.54309,0.43737 -0.5514,0.5577 -1.05057,1.16924 -1.66846,1.66201 -0.96856,1.18438 -1.99832,2.33003 -3.08664,3.40418 -0.94419,1.21349 -1.89869,2.41315 -2.91216,3.56863 -0.81,0.97798 -1.54411,2.01976 -2.38172,2.97663 -0.68727,0.95587 -1.47163,1.83205 -2.12402,2.8134 -0.66566,0.90215 -1.29181,1.85032 -2.074574,2.65426 -0.690282,0.94242 -1.453446,1.82457 -2.141498,2.76888 -0.657786,0.96303 -1.367724,1.89487 -2.04982,2.84006 -0.735901,1.02148 -1.602967,1.92848 -2.347386,2.94156 -0.732427,0.90099 -1.452022,1.81878 -2.298507,2.61732 -0.653409,0.92476 -1.338804,1.85135 -2.167498,2.62688 -0.208896,0.25987 -0.731393,0.7668 -0.925721,1.05 -0.389425,0.56751 -0.702062,1.19196 -1.117137,1.74379 -0.63763,0.89809 -1.210517,1.83824 -1.843606,2.73854 -0.601716,1.16705 -1.328685,2.25763 -2.066896,3.342 -0.657813,1.03679 -1.39636,2.00355 -2.161434,2.96091 -0.727195,0.88163 -1.273207,1.88242 -2.045018,2.72943 -0.300432,0.0943 -1.166934,1.92763 -1.536009,2.26123 -0.303557,0.22697 0.006,-0.0208 -0.505624,0.65214 -0.437653,0.57561 -0.809046,1.1978 -1.264426,1.76297 -0.82582,1.06209 -1.659498,2.11157 -2.34085,3.27683 -0.784202,1.15183 -1.496349,2.35471 -2.406582,3.4164 -0.801867,1.07336 -1.637821,2.09625 -2.679916,2.94982 -0.733616,0.73182 -1.192306,1.65889 -1.852719,2.45678 -1.962716,2.61695 -5.663649,-0.15875 -3.700933,-2.7757 z"
           inkscape:connector-curvature="0" />
        <path
           style="opacity:0.95;fill:#000000;fill-opacity:1;stroke:#000000;stroke-width:0.26458332;stroke-linecap:round;stroke-linejoin:round;stroke-miterlimit:4;stroke-dasharray:none;stroke-opacity:1"
           id="path7536"
           d="m 124.72061,116.11681 c 1.36351,0.075 2.62424,0.62968 3.83908,1.21049 0.98737,0.49282 1.80797,1.08953 2.61484,1.71132 -0.49228,-0.36794 1.09569,0.65921 1.18822,0.71379 0.94636,0.74644 0.91529,0.64443 1.79952,1.39243 1.11753,1.12361 -0.61668,-0.52258 0.6285,0.51713 0.76317,0.63725 0.17076,0.21497 0.46207,0.4197 1.48102,1.7254 0.23496,0.27709 0.22774,0.25941 -0.0357,-0.0872 0.15453,0.10788 0.22995,0.16434 0.15246,0.11413 0.35407,0.31192 0.54332,0.39548 0.34727,0.37383 1.06663,0.59804 1.30266,1.07691 0.0592,0.12002 -0.3046,-0.13806 -0.29564,-0.27158 0.008,-0.11807 0.20084,0.12524 0.30126,0.18785 0.60023,0.39804 1.12236,0.88055 1.6268,1.39241 -0.0911,-0.0864 -0.39093,-0.30316 -0.2733,-0.25925 0.25108,0.0937 0.67428,0.52072 0.86929,0.69817 0.0797,0.0726 -0.34407,-0.20909 -0.23683,-0.22029 0.0559,-0.006 0.60705,0.42011 0.71295,0.49958 -0.01,-0.0134 -0.0445,-0.0474 -0.0295,-0.0403 0.58487,0.2776 1.06743,0.79878 1.52929,1.24117 -0.40237,-0.40012 1.51791,1.27875 0.74204,0.7308 -0.18333,-0.12947 -0.7054,-0.46987 -0.48096,-0.47121 0.2471,-0.002 0.38181,0.31377 0.57272,0.47066 1.3576,1.23366 -0.892,-0.63094 0.35471,0.25652 0.0718,0.0511 0.13811,0.10964 0.20717,0.16446 -0.56295,-0.41063 0.21551,0.11907 0.30136,0.20506 0.12193,0.12214 -0.58927,-0.35553 -0.43078,-0.28723 0.26829,0.1156 0.55476,0.3193 0.81681,0.4872 0.0999,0.0728 0.19973,0.14563 0.29959,0.21846 0.009,0.005 0.0363,0.0212 0.027,0.0162 -0.15967,-0.0852 -0.64482,-0.32795 -0.47827,-0.25709 0.589,0.2506 0.60426,0.29073 1.06798,0.60786 -0.60698,-0.4154 0.26583,0.0217 0.52374,0.39366 0.0132,0.019 -3.3696,-2.31719 0.49778,0.42442 1.88476,2.67364 -1.89635,5.3391 -3.78111,2.66546 v 0 c 0.42796,0.28398 0.87914,0.53575 1.28389,0.85194 0.0851,0.0665 -0.21541,-0.0413 -0.3109,-0.0918 -1.6128,-0.85452 -1.01138,-0.70013 -0.3951,-0.21246 0.20372,0.16121 -1.17521,-0.66522 -0.6739,-0.39154 0.0783,0.0471 0.31789,0.1798 0.23495,0.14137 -0.10905,-0.0505 -0.43351,-0.18712 -0.31367,-0.17785 0.94233,0.073 0.2597,0.41668 -0.49467,-0.3043 -1.38832,-0.90267 1.68423,0.81293 -0.79266,-0.49553 -0.0674,-0.0356 0.13283,0.0749 0.19925,0.11234 -0.16697,-0.10588 -0.33394,-0.21176 -0.5009,-0.31764 0.45389,0.21964 -1.14695,-0.78578 -0.91803,-0.74284 0.11538,0.0812 0.45049,0.33835 0.34613,0.24345 -0.25926,-0.23577 -0.54299,-0.44316 -0.8123,-0.66738 -0.003,-0.003 0.009,0.001 0.013,0.002 0.0685,0.0545 0.13698,0.10894 0.20547,0.16341 -0.23852,-0.0996 -0.36743,-0.39425 -0.60249,-0.48812 -0.52725,-0.47474 -0.31321,-0.37372 -1.03732,-0.79115 -0.64939,-0.56262 -0.96616,-0.65053 -1.54111,-1.13456 -0.2933,-0.29881 -0.42949,-0.43658 -0.42261,-0.43728 0.11495,-0.0118 0.38069,0.26198 0.28365,0.19926 -0.23402,-0.15123 -0.46201,-0.30295 -0.66673,-0.49107 -0.44757,-0.29691 -0.8746,-0.62497 -1.26734,-0.96752 -0.64734,-0.41879 -1.19606,-0.87267 -1.7655,-1.40193 -0.0708,-0.0658 0.1471,0.12556 0.22064,0.18834 -0.13141,-0.11465 -0.55806,-0.36623 -0.38399,-0.35537 0.0285,0.002 0.1018,0.0501 0.079,0.0329 -0.41311,-0.3122 -0.81086,-0.5412 -1.13277,-0.93867 0.1107,0.0709 0.25542,0.10599 0.3321,0.21278 0.0688,0.0958 -0.20741,-0.11281 -0.30637,-0.17695 -0.43653,-0.28292 -0.78447,-0.58039 -0.84799,-0.65741 -0.68127,-0.40186 -1.33391,-0.8385 -1.97668,-1.3 0.0907,0.0453 0.3582,0.18929 0.27211,0.13577 -0.58706,-0.36494 -1.16328,-0.74372 -1.76597,-1.0826 -0.58786,-0.29134 -1.19674,-0.55314 -1.82123,-0.74722 -3.2712,0 -3.2712,-4.62617 0,-4.62617 z"
           inkscape:connector-curvature="0" />
        <path
           style="opacity:0.95;fill:#ff0000;fill-opacity:1;stroke:none;stroke-width:0.26458332;stroke-linecap:round;stroke-linejoin:round;stroke-miterlimit:4;stroke-dasharray:none;stroke-opacity:1"
           id="path7554"
           d="m 130.0569,116.58959 c 0.3095,-0.37665 0.68539,-0.68562 1.01911,-1.03832 0.16997,-0.17494 0.3513,-0.35073 0.56824,-0.46649 2.40801,-1.10347 2.72381,-0.42839 2.74743,0.79188 0.0428,0.49105 -0.20911,0.9154 -0.35976,1.36436 -0.12163,0.33536 -0.33144,0.621 -0.41075,0.97171 -0.1555,0.94288 0.58796,0.40299 -2.58201,-0.11603 -0.0158,-0.003 0.44245,-0.48945 0.45319,-0.49947 0.50059,-0.48001 1.06492,-0.8846 1.64078,-1.26813 0.48264,-0.3363 0.96394,-0.67464 1.45495,-0.99833 0.22072,-0.13068 0.45786,-0.23346 0.70823,-0.29034 0.98499,-0.12131 1.98538,-0.0582 2.97666,-0.0157 0.10151,0.4602 0.0783,0.93855 0.0772,1.40717 0.0276,0.66181 -0.0131,1.30992 -0.11642,1.96268 -0.0382,0.29037 -0.10085,0.57853 -0.11772,0.87142 -0.87997,-0.0285 -1.76455,0.009 -2.63993,-0.0854 -0.0657,-0.007 0.0151,-0.13226 0.036,-0.19495 0.14964,-0.44852 0.44044,-0.84619 0.71808,-1.22014 0.62839,-0.75546 1.22712,-1.53624 1.79236,-2.34003 0.28062,-0.41916 0.62188,-0.81709 0.84498,-1.2721 0.15194,-0.2342 0.28196,-0.47496 0.39984,-0.72793 0.46886,-1.01983 0.14384,-0.4281 2.77678,-0.13681 0.0166,0.002 0.0142,0.21397 0.0152,0.43716 -0.1051,0.89894 -0.61722,1.69951 -0.97822,2.5166 -0.38207,0.92705 -0.79581,1.84002 -1.13273,2.78463 -0.32144,0.62911 -0.37355,1.3433 -0.62749,1.99354 -0.0876,0.25175 -0.16352,0.51124 -0.16524,0.77965 5.3e-4,0.0129 0.0145,0.0398 0.002,0.0388 -2.87106,-0.20529 -3.04351,0.23196 -1.91647,-0.79481 0.2822,-0.19335 0.49169,-0.45269 0.79007,-0.62256 0.88279,-0.33425 2.65502,-0.79611 2.96354,0.1649 0.0179,0.44876 0.01,0.89805 0.0115,1.34703 0.0259,0.38959 -5.3e-4,0.76106 -0.11573,1.13373 0.01,0.0494 -0.22588,0.59139 -0.0706,0.40106 1.2702,-0.29739 -3.46429,0.25666 -2.06933,-0.12846 0.129,-0.10216 0.32762,-0.0298 0.43308,-0.10198 0.1276,-0.1454 0.28643,-0.23699 0.47775,-0.26517 0.99497,-0.0997 2.00115,-0.0241 3.00139,-0.0109 0.15146,0.0365 0.1779,0.46503 0.19123,0.61333 0.007,0.21898 0.0177,0.43811 0.0166,0.65717 0,0 -2.6318,-7.9e-4 -2.6318,-7.9e-4 v 0 c 2e-4,-0.21031 0.009,-0.42116 -0.0104,-0.63109 -0.002,-0.0142 -0.0284,-0.30507 -0.0855,-0.2919 -0.3182,0.0734 0.19942,0.0666 -0.0836,0.0617 -1.23074,-0.0196 3.45092,0.0426 2.20824,-0.01 -0.1634,0.007 -0.31163,-0.01 -0.4626,0.0591 -0.18873,0.32802 -0.13688,0.16371 -0.44539,0.25164 -0.97016,0.3456 -2.3535,0.71514 -3.1639,-0.006 -0.08,-0.24454 -0.0154,-0.43994 0.0762,-0.67924 0.11546,-0.34774 0.1586,-0.68312 0.13127,-1.05298 0.003,-0.41593 0.0168,-0.8384 -0.042,-1.25053 -0.25795,-0.52865 3.7009,-0.0395 2.27579,0.052 -0.42524,0.0909 -0.4442,0.33971 -0.79323,0.52574 -0.6077,0.56118 -3.188,2.56059 -3.32051,0.52437 0.032,-0.29941 0.0849,-0.58735 0.20048,-0.86892 0.29452,-0.62943 0.33039,-1.35602 0.65968,-1.97648 0.33739,-0.9519 0.77069,-1.86548 1.1514,-2.80157 0.33546,-0.78214 0.81399,-1.54858 0.92404,-2.40165 -0.006,-0.0812 -0.0102,-0.16254 -0.019,-0.24346 -0.005,-0.0434 -0.0652,-0.1256 -0.0217,-0.12908 2.98181,-0.23827 2.95624,-0.80261 2.46766,0.17834 -0.1218,0.25001 -0.21372,0.51737 -0.40121,0.72786 -0.0916,0.19699 -0.20375,0.32467 -0.32693,0.49857 -0.19119,0.2699 -0.32615,0.58359 -0.57375,0.81478 -0.56887,0.80227 -1.16682,1.58647 -1.79068,2.34666 -0.22873,0.306 -0.40249,0.57973 -0.56693,0.92139 -0.0296,0.0614 -0.0731,0.11602 -0.0975,0.17965 -0.0154,0.0404 0.0228,0.12498 -0.0204,0.12819 -0.87364,0.065 -1.75151,0.0459 -2.62727,0.0689 0.0709,-0.28604 0.0778,-0.58984 0.15694,-0.87519 0.1066,-0.63719 0.17225,-1.27006 0.12199,-1.9182 -0.002,-0.0897 -0.0121,-1.07702 -0.075,-1.08413 -0.0272,-0.003 -0.0127,0.0533 -0.0189,0.0799 -1.10136,-0.0127 3.54688,0.0375 2.23505,-0.009 -0.25183,0.003 -0.49292,0.0716 -0.72006,0.18208 -0.52619,0.26109 -0.98474,0.66573 -1.48156,0.97885 -0.56313,0.3766 -1.139,0.74824 -1.61489,1.23405 -0.59227,0.50325 -3.39876,3.00779 -3.08901,0.3358 0.0891,-0.36404 0.27151,-0.66358 0.43573,-0.99509 0.14241,-0.42384 0.38201,-0.81073 0.34788,-1.27256 -0.003,-0.0862 -0.008,-0.25482 -0.0177,-0.34399 -0.005,-0.0434 -0.01,-0.087 -0.0206,-0.1293 -0.004,-0.0176 -0.0419,-0.0489 -0.0238,-0.049 3.40765,-0.006 3.43542,-0.009 2.5417,0.0473 -0.23309,0.0388 -0.4162,0.17892 -0.58247,0.34337 -0.10883,0.10818 -0.20069,0.23291 -0.31239,0.33813 -0.24014,0.22622 -0.53272,0.40587 -0.70067,0.70392 0,0 -2.60605,-0.2051 -2.60605,-0.2051 z"
           inkscape:connector-curvature="0" />
        <path
           style="opacity:0.95;fill:#0000ff;fill-opacity:1;stroke:none;stroke-width:0.26458332;stroke-linecap:round;stroke-linejoin:round;stroke-miterlimit:4;stroke-dasharray:none;stroke-opacity:1"
           id="path7556"
           d="m 70.739343,187.89059 c 0.02461,-0.74567 0.02553,-1.49262 0.0051,-2.23839 -0.432025,-1.64484 3.34582,-1.61367 3.80393,-0.16351 0.260593,0.74471 0.413533,1.52067 0.591915,2.28968 0.175456,0.92833 0.470866,1.82441 0.761212,2.72003 0.123277,0.38559 0.266356,0.74392 0.717497,0.73875 1.250836,-0.087 2.886554,0.0801 -3.184218,-0.0266 -0.05799,-0.001 0.115998,-0.0204 0.167515,-0.047 0.215268,-0.11129 0.23385,-0.19503 0.379204,-0.39778 0.554921,-0.86264 0.834247,-1.85371 1.140164,-2.82362 0.349895,-1.01296 0.711459,-2.02702 0.849063,-3.09314 0.126595,-0.65506 0.264663,-1.30812 0.333968,-1.9724 -0.203483,-1.82461 3.318341,-1.85006 3.95469,-0.17214 0.228042,1.10365 0.386149,2.21857 0.611373,3.32338 0.343138,1.69533 0.567258,3.40687 0.88927,5.10705 0.139509,1.05879 0.47725,2.06901 0.779568,3.08662 0.317293,1.53448 0.662561,0.84925 -3.585284,0.23852 -0.114851,-0.0165 0.02357,-0.23093 0.03065,-0.34674 0.02463,-0.40373 0.03047,-0.83574 0.04011,-1.23746 0.04188,-2.15178 0.03775,-4.30387 0.03107,-6.45592 -0.0082,-1.90308 -0.01463,-3.80621 -0.03828,-5.70918 0.0046,-1.05143 -0.02886,-2.10267 -0.03479,-3.15386 -0.03851,-2.15647 0.04502,-1.03307 3.844944,-0.97139 0.416854,0.95346 0.870175,1.89006 1.289158,2.84248 0.68312,1.32727 1.150036,2.7473 1.79406,4.09194 0.388329,0.65773 0.611363,1.41348 1.044655,2.04437 0.09069,0.0204 0.231677,0.46086 0.354676,0.40244 0.03829,-0.0182 0.09877,-0.11326 0.05638,-0.11399 -1.215551,-0.0209 -2.431214,0.0348 -3.646818,0.0522 0.247975,-1.16612 0.237916,-2.37013 0.322847,-3.55708 0.276522,-1.91513 0.381376,-3.84698 0.566529,-5.77095 0.08879,-1.33582 0.07483,-2.67576 0.02217,-4.01266 -0.0042,-0.12258 -0.0067,-0.24523 -0.01254,-0.36774 -0.09173,-1.92282 3.278117,-1.92926 4.058161,-0.26312 0.691071,1.46339 1.343774,2.95128 1.974527,4.44578 0.897946,1.93583 1.541082,3.97521 2.34627,5.95038 0.645684,1.1573 0.860978,2.55154 1.651291,3.62776 0.0041,0.008 0.236595,0.46913 0.305485,0.48978 0.05418,0.0162 0.178181,-0.11622 0.12165,-0.11833 -1.19738,-0.0445 -2.402567,0.11074 -3.594605,-0.0107 -0.118822,-0.0121 0.07213,-0.22845 0.09287,-0.34607 0.03298,-0.18712 0.04525,-0.37731 0.06788,-0.56596 0.167978,-2.36147 0.153212,-4.73233 0.163772,-7.09858 -0.06915,-2.46232 0.01013,-4.92058 0.137961,-7.37908 0.09939,-1.75074 0.135176,-3.50352 0.150847,-5.25662 -0.0026,-0.77794 0.0026,-1.55693 -0.02712,-2.33438 -0.02851,-1.56553 1.721278,-0.40424 3.77132,-0.11986 0.03175,0.004 0.171694,0.8393 0.271336,1.19566 0.205877,0.98337 0.696087,1.86504 1.065985,2.78636 1.155869,2.87895 -0.584298,-1.1793 0.54415,1.42009 0.26947,0.81077 0.637116,1.57869 1.03977,2.32907 0.135202,-0.0146 0.06848,0.3151 0.193963,0.32363 0.04779,0.003 0.107209,-0.12933 0.05934,-0.13087 -1.218052,-0.0393 -2.440612,0.10407 -3.656026,0.0148 -0.09418,-0.007 0.03242,-0.18622 0.04222,-0.28015 0.0173,-0.16593 0.02601,-0.33264 0.03902,-0.49896 0.07991,-1.9274 0.144166,-3.85504 0.239427,-5.78207 0.114236,-2.01642 0.153987,-4.03564 0.173297,-6.05484 0.0077,-1.16643 -0.01019,-2.33272 -0.02617,-3.49897 0.01125,-0.40572 0.01273,-0.79206 -0.248983,-1.12091 -0.945113,-0.8684 -0.441619,-0.38635 3.634817,0.0229 0.100523,0.0101 -0.01865,0.20389 5.29e-4,0.30309 0.03391,0.17554 0.107209,0.34115 0.157107,0.51283 0.418748,1.44082 -0.0074,0.0908 0.560734,1.82176 0.921404,2.27966 1.824904,4.56681 2.753744,6.84341 0.49253,1.39228 1.15921,2.71831 1.88805,3.99951 0.43395,0.5152 0.0222,-0.005 0.36699,0.5208 0.83703,1.2763 2.55573,0.47822 -3.25016,0.30695 0.33399,-1.15952 0.24073,-2.45116 0.30094,-3.65151 0.18106,-2.24195 0.29089,-4.48898 0.4324,-6.73406 0.0852,-1.52663 0.13907,-3.05559 0.13881,-4.58471 0.004,-0.49974 -0.011,-0.99928 -0.021,-1.49882 1.27928,0.0336 2.5689,-0.065 3.83786,0.1007 0.1504,0.0196 0.10926,0.28308 0.16906,0.42247 0.4487,1.0458 0.85043,2.11619 1.25286,3.18197 0.69278,1.98187 1.65623,3.84597 2.48267,5.77131 0.34818,0.50575 0.53756,1.10266 0.89729,1.60094 0.19471,0.26971 0.38953,0.49084 0.55164,0.78565 0.0244,-0.0418 0.12164,-0.12416 0.0732,-0.12547 -1.22019,-0.0331 -2.44557,0.13154 -3.66181,0.0281 -0.11246,-0.01 0.0314,-0.22369 0.0398,-0.33624 0.0138,-0.18552 0.0202,-0.37153 0.0268,-0.55744 0.0217,-0.60641 0.0262,-1.12029 0.0359,-1.73408 0.073,-2.48484 -0.0973,-4.96547 -0.21654,-7.44608 -0.13806,-2.15776 -0.21194,-4.31523 -0.22969,-6.47734 -0.14229,-1.07791 -0.18769,-2.19164 -0.4049,-3.25933 -0.5031,-2.22275 -1.38371,-1.29836 3.44961,-1.0893 0.55543,1.6047 1.38755,3.09526 2.11395,4.6256 0.9071,1.63954 1.77406,3.29883 2.6578,4.94945 0.47097,0.66658 0.76186,1.4344 1.20132,2.11757 1.5002,1.1172 -2.75554,0.37083 -3.40524,0.31158 -0.10747,-0.01 0.0719,-0.20347 0.10788,-0.30521 0.41338,-1.58345 0.64036,-3.2059 0.9557,-4.81044 0.41064,-2.33582 0.84791,-4.66208 1.07013,-7.02508 0.11717,-1.49286 0.15973,-2.99261 0.12664,-4.48974 -0.003,-0.41308 -0.0264,-0.82548 -0.0369,-1.2383 0.19216,-1.71761 3.53542,-0.9791 4.43604,0.20837 0.11128,0.14671 0.19462,0.31266 0.29193,0.46899 0.82764,1.19678 1.43652,2.52272 2.18267,3.77223 0.36901,0.67713 0.66242,1.40686 1.04743,2.07624 0.29423,0.40487 0.16625,0.19906 0.389,0.61426 0.0699,0.19617 0.33057,0.73867 0.61462,0.57234 -1.20394,-0.002 -2.40803,0.0131 -3.61183,-0.006 -0.0431,-7.9e-4 0.0875,-0.0204 0.11975,-0.049 0.0373,-0.0331 0.0581,-0.0818 0.0786,-0.12718 0.21299,-0.4704 0.27861,-0.94526 0.35172,-1.45252 0.18185,-1.64806 0.44533,-3.28752 0.64164,-4.93512 0.15258,-1.36063 0.20708,-2.7292 0.22216,-4.0974 0.05,-0.78619 -0.0667,-1.5538 -0.23831,-2.31787 -0.0623,-0.24773 -0.052,-0.51931 -0.11558,-0.76648 -0.0128,-0.0497 -0.0192,-0.11573 -0.0645,-0.13982 -0.0294,-0.0156 -0.10853,0.0646 -0.0753,0.0655 1.21292,0.0346 2.42669,0.0242 3.64004,0.0363 -0.0535,0.73813 0.14521,1.53582 0.38838,2.22839 0.27642,0.92543 0.62308,1.86777 1.1133,2.70568 0.28384,0.55415 0.44778,1.15417 0.67423,1.72901 0.0924,0.23447 0.2245,0.45186 0.31818,0.6858 0.19378,0.45222 0.45595,0.80833 0.82494,1.1278 0.23863,-8e-4 0.33099,0.21505 0.49577,0.32678 0.0258,0.0175 0.0606,0.0147 0.0909,0.0221 -1.19996,-0.0345 -2.39991,-0.069 -3.59986,-0.10343 0.0213,0.0211 0.0412,0.0827 0.0639,0.0632 0.23087,-0.19854 0.31056,-1.27675 0.36111,-1.56842 0.19377,-0.96736 0.43092,-1.9243 0.6514,-2.88673 0.3036,-1.05155 0.74998,-2.04015 1.20895,-3.02951 0.35464,-0.52887 0.53409,-1.11662 0.60372,-1.74182 0.011,-0.26643 0.0157,-0.53274 -0.007,-0.79862 -0.0126,-0.11382 0.006,0.0123 -0.041,0.1099 -0.0278,0.0574 -0.16773,0.06 -0.21284,0.0665 1.21081,-0.0232 2.42162,-0.0464 3.63243,-0.0695 0,0 -3.71189,-0.16409 -3.71189,-0.16409 v 0 c 1.25306,-0.1125 2.50529,-0.23458 3.75917,-0.33749 0.0757,-0.006 0.21096,0.0461 0.24546,0.12125 0.0609,0.13258 0.057,0.15758 0.0581,0.25786 5.3e-4,0.28365 0.009,0.56796 -0.0263,0.85007 -0.0564,0.66419 -0.25322,1.321 -0.64376,1.86756 -0.46322,0.96136 -0.92478,1.9144 -1.22044,2.94536 -0.19423,0.95857 -0.45001,1.90404 -0.63435,2.86409 -0.0885,0.68765 -0.15626,1.38112 -0.40696,2.03274 -1.73457,-0.0473 -3.18506,0.53976 -4.36574,-0.53158 -0.35035,-0.38247 -0.61408,-0.79379 -0.80007,-1.28315 -0.32185,-0.79366 -0.60026,-1.59923 -0.97634,-2.37074 -0.46066,-0.87923 -0.8224,-1.82023 -1.10136,-2.77153 -0.26696,-0.81656 -0.47467,-1.69885 -0.45475,-2.56149 3.86835,-0.18516 3.6825,-1.21962 4.01774,0.94575 0.13967,0.79359 0.27478,1.58948 0.19272,2.39865 -0.0449,1.38047 -0.10802,2.7604 -0.27447,4.13265 -0.20165,1.64573 -0.47668,3.2852 -0.59926,4.93838 -0.0607,0.53445 -0.1406,1.01714 -0.28758,1.53202 -0.45544,1.59538 -1.22892,0.57491 -3.97842,0.54847 -0.26788,-0.25094 -0.48498,-0.52594 -0.60077,-0.88321 -0.47536,-0.88292 -0.92922,-1.77663 -1.36642,-2.67944 -0.73112,-1.25302 -1.33486,-2.58657 -2.21593,-3.74426 -0.32685,-0.42192 -0.22785,-0.35579 -0.63842,-0.66007 -0.0715,-0.053 -0.31342,-0.13804 -0.22462,-0.14452 1.1904,-0.0868 2.38755,-0.0341 3.57929,-0.10007 0.0409,-0.002 -0.0388,-0.0947 -0.0798,-0.0936 -0.0319,8e-4 -5.3e-4,0.0639 -10e-4,0.0958 -5.2e-4,0.41533 -0.0116,0.8304 -0.0215,1.24566 -0.0563,1.50853 -0.10152,3.01809 -0.23669,4.52248 -0.25305,2.36992 -0.70986,4.70214 -1.07337,7.05617 -0.29694,1.61913 -0.53406,3.24856 -0.81425,4.86865 -0.50018,1.43197 -3.34732,1.3214 -4.09097,0.0662 -0.38339,-0.70696 -0.67783,-1.45912 -1.10924,-2.14206 -0.84103,-1.66783 -1.70891,-3.31918 -2.59839,-4.9631 -0.75463,-1.54408 -1.58008,-3.05476 -2.25319,-4.6376 3.69267,-0.40052 3.43384,-1.36293 3.90976,0.87773 0.16744,1.09765 0.22786,2.22042 0.31972,3.32472 -0.0311,2.15644 0.0271,4.30768 0.15648,6.46031 0.10583,2.48661 0.28282,4.97109 0.27212,7.46135 0.0149,0.77109 0.0403,1.54295 0.0421,2.31426 2.6e-4,0.13584 0.12812,0.38036 -0.005,0.40749 -3.64618,0.74316 -3.2664,1.49449 -3.81702,0.18964 -0.1508,-0.2756 -0.34439,-0.51361 -0.50697,-0.78123 -0.32007,-0.52685 -0.52049,-1.11689 -0.82947,-1.64972 -0.78085,-1.94263 -1.7529,-3.80236 -2.45255,-5.77938 -0.35044,-0.85712 -0.68546,-1.73138 -1.06524,-2.57592 -0.0889,-0.19782 -0.1955,-0.38726 -0.29592,-0.5795 -0.065,-0.12448 -0.33798,-0.34268 -0.20035,-0.37062 1.17105,-0.23765 2.38069,-0.20897 3.57104,-0.31346 -0.007,0.50277 -0.0282,1.00505 -0.0426,1.50769 -0.0643,1.5344 -0.13642,3.06812 -0.24768,4.60002 -0.14932,2.24119 -0.25522,4.48436 -0.42337,6.72331 -0.0242,1.31621 0.0533,2.64392 -0.1483,3.94897 -3.90222,0.0683 -3.27616,0.94108 -4.48317,-0.95854 -0.65294,-1.31828 -1.300982,-2.64489 -1.765902,-4.04422 -0.892609,-2.29734 -1.817331,-4.5792 -2.757305,-6.85751 -0.29477,-0.78305 -0.663729,-1.61412 -0.854221,-2.43521 -0.364937,-1.57301 2.92744,-1.77773 3.759838,-0.5488 0.20347,0.42015 0.248057,0.86042 0.205436,1.32431 -0.01585,1.16816 -0.04046,2.33622 -0.06298,3.50427 -0.04026,2.0233 -0.105862,4.04612 -0.208801,6.06727 -0.09727,1.92522 -0.158049,3.85167 -0.13711,5.77947 -0.0026,0.40466 -2.4e-5,0.85096 -0.02537,0.85577 -3.873707,0.73532 -3.218067,1.39548 -3.996357,-0.1253 -0.370403,-0.76511 -0.694277,-1.55048 -0.957675,-2.35965 -0.570751,-1.40734 -1.162981,-2.80766 -1.648756,-4.24775 -0.459791,-1.55875 0.08239,0.33505 -0.231458,-0.90839 -0.02959,-0.11724 -0.227513,-0.33342 -0.107307,-0.34652 5.407835,-0.58946 3.679499,-0.88056 3.650239,0.0765 -0.02798,0.77991 -0.03108,1.56095 -0.05661,2.34109 -0.04539,1.75776 -0.122926,3.51481 -0.23055,5.26988 -0.143579,2.45253 -0.227719,4.90232 -0.192001,7.35988 0.0058,2.37715 0.02755,4.75481 -0.01378,7.13171 -0.0272,0.41137 -0.06494,1.07579 -0.09625,1.08227 -3.211153,0.66498 -3.339629,1.26156 -4.20094,-0.35293 -0.671344,-1.15989 -0.943039,-2.50956 -1.549064,-3.70307 -0.783635,-1.97854 -1.423988,-4.01437 -2.328773,-5.94285 -0.647711,-1.48605 -1.304991,-2.97615 -2.120617,-4.37846 -0.984308,-0.96059 -0.130341,-0.0648 3.420997,-0.25315 0.02853,-0.002 -0.03347,-0.0735 -0.0595,-0.0617 -0.110353,0.0499 -0.05045,0.23864 -0.05094,0.35975 -5.29e-4,0.12289 0.0011,0.24579 0.0019,0.36869 -0.0075,1.35173 -0.007,2.70512 -0.119354,4.05332 -0.187277,1.91958 -0.29401,3.84648 -0.541935,5.76044 -0.07547,1.21795 -0.05635,2.44023 -0.206193,3.65091 -3.861612,0.38585 -3.12607,1.30039 -4.175699,-0.25863 -0.354674,-0.67974 -0.618826,-1.40517 -0.969925,-2.08685 -0.607626,-1.35842 -1.077159,-2.77492 -1.770282,-4.09521 -0.440674,-0.93551 -0.882486,-1.8755 -1.392597,-2.77505 4.365109,-0.24674 3.557209,-1.2655 3.540011,0.74991 -0.006,1.05116 -0.03951,2.10238 -0.03465,3.15378 -0.02299,1.90284 -0.02809,3.80585 -0.03197,5.70881 -0.0013,2.15274 0.0045,4.30539 0.04776,6.45779 0.0019,0.11432 0.02148,1.63552 0.01889,1.63593 -4.023268,0.63362 -3.482769,1.35292 -3.814358,-0.19111 -0.268716,-1.03012 -0.517424,-2.06758 -0.676862,-3.121 -0.31205,-1.69978 -0.532453,-3.41281 -0.909998,-5.09975 -0.227009,-1.08687 -0.405685,-2.18118 -0.692483,-3.25468 -0.750776,-1.75019 4.239988,0.24698 3.532071,-0.38395 -0.05378,-0.0479 -0.0521,0.0657 -0.07124,0.25176 -0.0072,0.0705 -0.01527,0.14103 -0.02289,0.21155 -0.108424,0.66065 -0.211997,1.32299 -0.376711,1.97312 -0.158517,1.08366 -0.492601,2.1243 -0.875525,3.14963 -0.287882,0.99457 -0.569132,2.00915 -1.099804,2.90547 -0.794266,1.73224 -2.92757,1.25807 -4.724209,0.74815 -0.405488,-0.26034 -0.581425,-0.62071 -0.694145,-1.08758 -0.300268,-0.90162 -0.545444,-1.82096 -0.739463,-2.7516 -0.185264,-0.76471 -0.376859,-1.52614 -0.650346,-2.26409 -0.460997,-1.53785 4.092943,-1.57432 3.590851,0.0531 -0.02043,0.74577 -0.0195,1.49272 0.0051,2.2384 0,0 -3.702118,0 -3.702118,0 z"
           inkscape:connector-curvature="0" />
      </g>
    </g>
  </g>
</svg>
